Coordinates
version=1
nRows=19
nColumns=34
inDegrees=yes

Units are S.I. units (second, meters, Newtons, ...)
If the header above contains a line with 'inDegrees', this indicates whether rotational values are in degrees (yes) or radians (no).

endheader
time	pelvis_tilt	pelvis_list	pelvis_rotation	pelvis_tx	pelvis_ty	pelvis_tz	hip_flexion_r	hip_adduction_r	hip_rotation_r	knee_angle_r	ankle_angle_r	subtalar_angle_r	mtp_angle_r	hip_flexion_l	hip_adduction_l	hip_rotation_l	knee_angle_l	ankle_angle_l	subtalar_angle_l	mtp_angle_l	lumbar_extension	lumbar_bending	lumbar_rotation	arm_flex_r	arm_add_r	arm_rot_r	elbow_flex_r	pro_sup_r	arm_flex_l	arm_add_l	arm_rot_l	elbow_flex_l	pro_sup_l
      4.60000000	     -9.10498079	      1.40686486	      8.05985382	      1.77549921	      0.93326411	     -0.05782553	      1.98943963	     -5.19165887	    -12.44965083	      5.54503536	    -16.24356695	     -3.29585396	      0.00000000	      4.42321627	     -6.75515233	     -4.06878165	      2.37999049	    -19.73032457	      5.04638103	      0.00000000	      3.53120788	     -8.06372236	     14.03704351	    155.72681830	     -4.66373423	     45.13946818	     25.28385569	     72.45050534	    128.58165604	      7.27316459	     25.65025214	     78.42621130	     95.03220957
      4.61666670	     -8.75356805	      1.34525227	      7.95889075	      1.77818993	      0.93300762	     -0.05860821	      1.48897032	     -5.05496677	    -12.26271152	      5.75649085	    -15.93472551	     -3.38654003	      0.00000000	      3.80028464	     -6.76174184	     -4.24025438	      2.43707177	    -19.18136108	      4.69080763	      0.00000000	      3.22029123	     -8.14270889	     13.72555010	    155.53403990	     -4.79559276	     45.01933325	     25.56249372	     72.60522280	    127.82740723	      7.94228626	     25.98121145	     79.25045609	     95.07415008
      4.63333330	     -8.32496822	      1.36816566	      7.83134163	      1.78024800	      0.93308172	     -0.05876062	      0.85551442	     -4.96109311	    -12.16418520	      5.81187116	    -15.38795845	     -3.54122490	      0.00000000	      3.12615322	     -6.68122274	     -4.39915176	      2.54513852	    -18.60685694	      4.41676050	      0.00000000	      2.82048846	     -8.17138641	     13.51889648	    154.88500064	     -5.09494769	     45.04725471	     26.37133041	     72.86644359	    126.55335403	      8.38410410	     26.30309820	     80.50883769	     95.13851505
      4.65000000	     -8.30660965	      1.35158540	      7.68938939	      1.78175432	      0.93264005	     -0.05876842	      0.70534095	     -4.88339487	    -12.20587205	      5.80058762	    -14.92355013	     -3.44401051	      0.00000000	      2.90614452	     -6.60977348	     -4.66856093	      2.59822590	    -18.07014869	      4.48626667	      0.00000000	      2.82435044	     -8.01524433	     13.13222349	    153.32385136	     -5.80922662	     44.42742510	     30.30347207	     74.50194198	    124.56076680	      8.15485940	     26.14487473	     83.24337795	     95.56471785
      4.66666670	     -7.87964824	      1.34600317	      7.51513129	      1.78281862	      0.93224396	     -0.05944026	      0.13635162	     -4.76703212	    -12.20577783	      5.74583880	    -14.73003287	     -3.75485759	      0.00000000	      2.27532312	     -6.60263713	     -4.96581981	      2.70416378	    -17.68741857	      4.32300102	      0.00000000	      2.47174688	     -7.80275333	     12.68540111	    151.64009271	     -6.16550507	     43.99058591	     32.18853568	     75.57069674	    122.52150063	      7.76098911	     26.60405744	     84.59941191	     95.90793713
      4.68333330	     -7.72842572	      1.32897295	      7.34095940	      1.78413498	      0.93127264	     -0.06082486	     -0.04158979	     -4.72322664	    -12.00486433	      5.85332434	    -14.31113843	     -4.08439257	      0.00000000	      2.08769642	     -6.59818990	     -5.00747108	      3.06083677	    -16.95724182	      4.11787017	      0.00000000	      2.54888441	     -7.94025221	     12.13975567	    148.56473394	     -7.13748985	     39.34016021	     36.11458668	     80.45749721	    120.49378736	      7.69540971	     27.59214048	     85.32514257	     97.51857244
      4.70000000	     -7.27004822	      1.40378760	      7.19112884	      1.78543994	      0.93116505	     -0.06205853	     -0.55033277	     -4.77573967	    -12.00249698	      5.98209548	    -14.11747547	     -4.48779459	      0.00000000	      1.53137023	     -6.52847993	     -5.16848722	      3.34316226	    -16.44733195	      4.03823787	      0.00000000	      2.09183361	     -7.70389686	     11.68900581	    146.92707849	     -7.54559124	     40.06174277	     37.56010404	     81.41397781	    117.87974217	      6.52055926	     27.93748354	     87.52088759	     97.69884581
      4.71666670	     -6.88739300	      1.44952380	      6.90133283	      1.78647951	      0.93164905	     -0.06227156	     -0.92944915	     -4.77738380	    -11.83297879	      6.08422888	    -13.98804140	     -4.72674347	      0.00000000	      1.10801136	     -6.51403895	     -5.23566265	      3.70135233	    -15.99733969	      4.06787362	      0.00000000	      1.83838765	     -7.53589612	     11.58956519	    144.95088844	     -8.45352802	     40.76246072	     39.43229404	     82.16907166	    115.09053477	      5.33158450	     28.68697377	     89.47441561	     97.85769847
      4.73333330	     -6.72073012	      1.49715048	      6.59046099	      1.78726127	      0.93261656	     -0.06304565	     -1.03365019	     -4.85415391	    -12.05733634	      6.20480669	    -13.99696340	     -5.10660783	      0.00000000	      0.98746715	     -6.46843585	     -5.62565067	      4.09593323	    -15.67480684	      4.20171258	      0.00000000	      1.70718504	     -7.37802341	     11.34966091	    142.82611004	     -9.54191309	     41.46735135	     42.33120077	     83.06507336	    112.21849985	      4.09848496	     29.47349426	     91.84581385	     98.02253659
      4.75000000	     -6.48198780	      1.54533844	      6.27922675	      1.78820076	      0.93427275	     -0.06507184	     -1.31635713	     -4.96180461	    -12.20903921	      6.14003245	    -14.27771145	     -5.30150189	      0.00000000	      0.71900237	     -6.41435522	     -5.70696613	      4.31928968	    -15.61014266	      4.48901121	      0.00000000	      1.46243307	     -7.14954024	     11.15025078	    140.35788131	    -10.63325343	     41.86136290	     45.40644428	     83.80637061	    109.22414831	      3.36303441	     29.99649980	     93.96757851	     98.13459870
      4.76666670	     -6.42438320	      1.58388690	      6.04487199	      1.78943315	      0.93527416	     -0.06782972	     -1.39233498	     -5.18700504	    -12.34625752	      6.19659260	    -14.43643430	     -5.45616291	      0.00000000	      0.62796807	     -6.29937106	     -5.37887660	      4.50163542	    -15.40489987	      4.76882606	      0.00000000	      1.31888892	     -6.98025372	     10.85169288	    137.29856514	    -12.20732895	     41.01434084	     49.95996824	     84.74311650	    106.03653170	      3.30388025	     30.31256908	     96.29345145	     98.28466279
      4.78333330	     -6.27312806	      1.57017809	      5.79100169	      1.79079305	      0.93507137	     -0.06929177	     -1.73415903	     -5.30265458	    -12.29005981	      5.90495992	    -15.03266404	     -5.30101579	      0.00000000	      0.35054460	     -6.26819652	     -5.18179619	      4.52527245	    -15.59170156	      4.76895602	      0.00000000	      1.21513676	     -6.89728523	     10.29466416	    133.05366880	    -13.73933913	     38.77781040	     55.13110826	     86.11339276	    102.71025569	      3.46055703	     31.08152009	     97.77683677	     98.58273567
      4.80000000	     -6.12510532	      1.53821458	      5.61403944	      1.79244002	      0.93335462	     -0.06942328	     -2.00724597	     -5.36722118	    -12.16073115	      5.80443894	    -15.53914022	     -5.33158707	      0.00000000	      0.01821968	     -6.29174905	     -4.69237161	      4.43866025	    -15.73964440	      4.67404469	      0.00000000	      1.03786330	     -6.65866306	      9.70487830	    128.97315665	    -14.94426339	     37.54038331	     59.96690867	     87.68141467	     99.22158105	      2.89079934	     31.85465567	     99.63227672	     98.88737230
      4.81666670	     -6.04163807	      1.50755897	      5.41382718	      1.79480489	      0.93121966	     -0.06937138	     -2.25334883	     -5.37988659	    -11.77214263	      5.66106265	    -15.99537218	     -5.34865709	      0.00000000	     -0.22640850	     -6.34530004	     -4.22799200	      4.45798685	    -15.86047412	      4.32466883	      0.00000000	      0.92920416	     -6.40655813	      9.35526651	    124.66588783	    -16.02240086	     36.51117336	     64.85007800	     88.96151221	     95.25648692	      1.62525411	     32.74912734	    102.16760597	     99.14297410
      4.83333330	     -6.00498836	      1.49330983	      5.19159580	      1.79768636	      0.92972219	     -0.07032805	     -2.47911760	     -5.40289839	    -11.25429874	      5.52579239	    -16.34526272	     -5.36838889	      0.00000000	     -0.45759317	     -6.35783917	     -3.74313794	      4.49397533	    -15.91990216	      3.87437183	      0.00000000	      0.83513820	     -6.13789874	      9.25351428	    120.20596482	    -17.12231447	     35.49107417	     69.71577870	     89.78243838	     90.67860150	     -0.43970668	     33.79118398	    105.33548531	     99.35253269
      4.85000000	     -6.03342071	      1.50420429	      4.92000274	      1.80070867	      0.92903785	     -0.07222962	     -2.62267615	     -5.51225882	    -10.86792284	      5.45265025	    -16.73573001	     -5.47363994	      0.00000000	     -0.70536456	     -6.27564954	     -3.40103478	      4.48580707	    -16.02637312	      3.40341167	      0.00000000	      0.87461778	     -5.85220076	      9.11082774	    114.60410246	    -17.97392183	     33.17223229	     74.99825920	     90.69907440	     85.50839140	     -2.89478463	     35.01364772	    108.31500444	     99.68164985
      4.86666670	     -6.06437825	      1.52512206	      4.63539932	      1.80368892	      0.92896972	     -0.07414894	     -2.73352310	     -5.64513574	    -10.59670717	      5.43730264	    -17.06261670	     -5.59080221	      0.00000000	     -0.96825154	     -6.12165050	     -3.03261577	      4.54678967	    -15.92870576	      3.00761583	      0.00000000	      0.71069247	     -5.37441173	      8.73331977	    109.01173102	    -18.76822548	     32.05464066	     80.42544815	     91.13064248	     79.66383127	     -5.42555911	     35.83692798	    111.72056302	     99.87958628
      4.88333330	     -6.14768403	      1.60452205	      4.36479061	      1.80701553	      0.92856906	     -0.07566517	     -2.88650379	     -5.82915479	    -10.58027467	      5.24557244	    -17.55877184	     -5.74779994	      0.00000000	     -1.16515989	     -5.89057344	     -2.94521900	      4.69839052	    -16.03277690	      2.55579865	      0.00000000	      0.62567458	     -4.85434690	      8.09332239	    102.63564219	    -19.21012923	     30.92142490	     85.58467788	     91.41796520	     73.37022739	     -7.63430813	     36.28090157	    114.10107141	    100.03523327
      4.90000000	     -6.39339774	      1.66889675	      4.16277157	      1.81076728	      0.92743620	     -0.07723105	     -2.80598641	     -6.01495965	    -10.21165792	      5.29402863	    -17.72389796	     -5.86456784	      0.00000000	     -1.18836619	     -5.66034672	     -2.46016684	      4.86445539	    -15.70445737	      2.06200423	      0.00000000	      0.70444795	     -4.44056844	      7.24276645	     95.41770417	    -19.65060240	     29.51673355	     90.18246839	     91.75782796	     66.68415590	     -9.12279436	     36.45114904	    115.93877838	    100.18779031
